<?xml version="1.0" standalone="no"?>
<!DOCTYPE svg PUBLIC "-//W3C//DTD SVG 20010904//EN"
 "http://www.w3.org/TR/2001/REC-SVG-20010904/DTD/svg10.dtd">
<svg version="1.0" xmlns="http://www.w3.org/2000/svg"
 width="300.000000pt" height="300.000000pt" viewBox="0 0 300.000000 300.000000"
 preserveAspectRatio="xMidYMid meet">
<metadata>
Created by potrace 1.11, written by Peter Selinger 2001-2013
</metadata>
<g transform="translate(0.000000,300.000000) scale(0.100000,-0.100000)"
fill="#000000" stroke="none">
<path d="M1306 2693 c-60 -35 -127 -74 -150 -87 -22 -13 -95 -55 -161 -93 -66
-38 -181 -105 -255 -148 -74 -43 -196 -113 -272 -157 l-136 -79 -1 -624 0
-624 100 -57 c54 -31 99 -62 99 -69 0 -19 -24 -35 -63 -42 -30 -4 -36 -2 -42
17 -12 37 -73 89 -113 96 -31 6 -142 9 -217 5 -20 -1 -20 -7 -19 -223 1 -123
2 -225 3 -228 0 -3 36 -5 79 -5 86 0 78 -8 81 86 1 36 2 37 40 37 54 1 96 25
132 75 27 38 30 39 25 14 -5 -29 -2 -31 52 -28 23 1 32 -3 32 -14 0 -11 -10
-15 -35 -15 -19 0 -36 -3 -36 -7 -4 -25 -4 -143 1 -144 3 -1 66 -2 140 -3 130
-2 167 4 153 27 -3 6 -1 7 5 3 6 -4 9 -12 6 -19 -3 -9 16 -13 76 -13 l80 0 1
56 c1 30 0 67 -1 83 -1 15 3 27 9 27 6 0 12 -12 12 -27 3 -65 6 -119 8 -129 1
-14 143 -13 153 1 4 5 5 18 2 28 -5 17 15 24 30 10 4 -5 11 -8 14 -8 4 0 18
-8 32 -16 40 -25 172 -102 211 -123 l36 -19 96 57 c64 37 107 56 129 56 76 0
156 46 177 102 6 17 10 14 31 -19 14 -20 43 -48 65 -60 143 -81 296 64 251
238 -12 45 -12 51 5 59 10 6 19 10 21 10 2 0 3 -72 3 -160 0 -100 3 -161 10
-163 5 -2 41 -3 80 -3 l70 1 0 97 c0 59 5 102 12 109 9 9 11 -16 10 -97 l-2
-109 70 0 c84 -1 96 2 94 24 -1 9 0 43 1 76 2 57 2 58 12 26 43 -151 253 -178
339 -43 25 40 28 52 24 105 -9 130 -116 203 -246 167 -47 -13 -107 -74 -115
-117 -8 -42 -21 -51 -18 -14 3 43 -30 107 -64 125 -21 11 -54 14 -125 12 -53
-2 -97 -2 -97 0 0 1 55 34 123 73 l123 70 -1 626 0 625 -40 24 c-44 26 -343
199 -765 443 l-276 159 -108 -63z m-1033 -2028 c1 -5 -6 -11 -15 -13 -11 -2
-18 3 -18 13 0 17 30 18 33 0z m479 -91 c2 -36 0 -68 -5 -71 -4 -2 -6 1 -5 9
2 8 -9 14 -29 16 l-33 3 0 74 0 74 34 -20 c33 -19 34 -23 38 -85z m1258 -33
c-6 -12 -15 -19 -21 -16 -15 10 -10 33 9 37 24 6 25 3 12 -21z m-1258 -98 c-3
-16 -7 -22 -10 -15 -4 13 4 42 11 42 2 0 2 -12 -1 -27z"/>
</g>
</svg>
